<?xml version="1.0" encoding="UTF-8"?>
<svg version="1.1" xmlns="http://www.w3.org/2000/svg" width="439" height="445">
<path d="M0 0 C144.87 0 289.74 0 439 0 C439 146.85 439 293.7 439 445 C294.13 445 149.26 445 0 445 C0 298.15 0 151.3 0 0 Z " fill="#457CCF" transform="translate(0,0)"/>
<path d="M0 0 C144.87 0 289.74 0 439 0 C439 146.85 439 293.7 439 445 C294.13 445 149.26 445 0 445 C0 298.15 0 151.3 0 0 Z M24 104 C23.86246982 139.52533597 23.75684226 175.05062501 23.69360802 210.57617268 C23.68610437 214.77653092 23.67833838 218.97688864 23.67041016 223.17724609 C23.66883629 224.01341188 23.66726243 224.84957766 23.66564088 225.7110818 C23.63957964 239.22509465 23.59229811 252.73895332 23.53708322 266.25287491 C23.48084375 280.13401488 23.44761985 294.01507447 23.43546903 307.89632368 C23.42726318 316.4521243 23.40140862 325.00748906 23.3525012 333.56315541 C23.32062414 339.44138109 23.31123557 345.3193836 23.31899174 351.19768929 C23.32281025 354.58233314 23.31388434 357.96561216 23.28476715 361.35022163 C23.14185727 378.82759257 23.34521973 395.45662741 36 409 C36.58394531 409.67289062 37.16789062 410.34578125 37.76953125 411.0390625 C45.99441847 419.98425552 56.9425471 425.16819987 69.0466249 426.27978981 C72.3943783 426.38685857 75.73061608 426.4048404 79.08004761 426.38768005 C80.99148959 426.39575836 80.99148959 426.39575836 82.94154656 426.40399987 C86.44896152 426.41836022 89.95613962 426.41423955 93.46356702 426.40683305 C97.25781746 426.40208016 101.05201821 426.41462989 104.84625244 426.42485046 C112.26803133 426.44200252 119.68972541 426.44288595 127.11151896 426.43763756 C133.1470997 426.43358786 139.18265547 426.4350489 145.21823502 426.44038582 C146.07890394 426.44113424 146.93957286 426.44188266 147.82632265 426.44265376 C149.57505528 426.44418532 151.3237879 426.44572367 153.07252051 426.44726873 C169.45330023 426.46098081 185.83403213 426.45556521 202.21481074 426.44408352 C217.18185192 426.43415282 232.14876944 426.44709129 247.11579154 426.47101771 C262.5058543 426.49543394 277.89585952 426.50501036 293.28594124 426.49836498 C301.91753049 426.49487833 310.54902467 426.49706817 319.18059921 426.51461601 C326.52848854 426.52936961 333.87621587 426.52993234 341.22410212 426.5125451 C344.96858324 426.50405854 348.71277535 426.50182758 352.45724106 426.51719666 C356.5270544 426.53369349 360.5961765 426.51883788 364.66598511 426.50120544 C365.83459072 426.51081045 367.00319633 426.52041546 368.20721424 426.53031152 C382.83618667 426.40048924 396.45284363 421.31277512 407 411 C414.11004019 402.37548936 420.12813486 391.53463057 420.12304783 380.11932755 C420.12503888 379.13252919 420.12702993 378.14573084 420.12908131 377.12902951 C420.12471205 375.50647185 420.12471205 375.50647185 420.12025452 373.85113525 C420.12110894 372.70023934 420.12196337 371.54934343 420.12284368 370.36357188 C420.12420718 367.16875197 420.12107741 363.97397252 420.11606562 360.7791574 C420.11175076 357.33406942 420.11320828 353.88898336 420.1139679 350.44389343 C420.11449247 344.47493288 420.11135258 338.50598325 420.10573006 332.53702545 C420.0976061 323.90689456 420.09499892 315.27676896 420.09374207 306.64663467 C420.09155296 292.64511673 420.08489669 278.64360462 420.07543945 264.64208984 C420.06626169 251.04020212 420.05918264 237.43831598 420.05493164 223.83642578 C420.05466892 222.99813092 420.05440619 222.15983605 420.05413551 221.29613832 C420.05283048 217.09069684 420.05156677 212.88525536 420.05032361 208.67981386 C420.03995539 173.78653842 420.0223409 138.89326975 420 104 C417.86760018 107.19859973 416.97873997 109.9710468 415.8125 113.625 C413.5990692 120.1116631 410.73904758 125.04329262 406 130 C405.39285156 130.63550781 404.78570312 131.27101562 404.16015625 131.92578125 C392.7547964 142.81801653 377.14465593 145.46898623 361.93809509 145.38095093 C360.04775609 145.38797089 360.04775609 145.38797089 358.11922842 145.39513266 C354.65580917 145.40754896 351.19264087 145.40151562 347.72922122 145.39217401 C343.98070395 145.38534507 340.23222779 145.39588362 336.48371887 145.40411377 C329.1543168 145.41741215 321.8250072 145.41459092 314.49560159 145.40587585 C308.53630628 145.39908483 302.57703679 145.39818869 296.61773872 145.4014473 C295.76772929 145.401907 294.91771986 145.40236669 294.04195257 145.40284032 C292.31487801 145.40379955 290.58780347 145.40477219 288.86072893 145.4057581 C272.688881 145.41430045 256.5170842 145.40449575 240.34524465 145.388357 C226.48428791 145.37495245 212.62340656 145.37728528 198.76245117 145.39111328 C182.64464804 145.40718536 166.52688964 145.41347912 150.40907961 145.40427649 C148.68886825 145.4033209 146.96865688 145.40237778 145.24844551 145.4014473 C144.40218723 145.40098447 143.55592896 145.40052164 142.68402649 145.40004479 C136.7348706 145.39745997 130.7857432 145.40181488 124.83659172 145.40888596 C117.58237871 145.41731915 110.32826302 145.41498257 103.07406109 145.39904372 C99.37644897 145.39118579 95.67899884 145.38802686 91.98138809 145.39799118 C87.9657595 145.40864848 83.95053623 145.39588179 79.93492126 145.38095093 C78.19764319 145.39098918 78.19764319 145.39098918 76.42526859 145.40123022 C61.52273962 145.29401347 48.87068193 140.42181869 37.99609375 130.109375 C30.76789722 122.47096771 27.94035725 113.87491662 25 104 C24.67 104 24.34 104 24 104 Z " fill="#F6F9F9" transform="translate(0,0)"/>
<path d="M0 0 C0.7149184 -0.00226556 1.4298368 -0.00453111 2.16641939 -0.00686532 C4.56834985 -0.01320867 6.97022394 -0.01237573 9.37216187 -0.0115509 C11.09197055 -0.0145423 12.81177857 -0.01794478 14.53158569 -0.02172852 C19.20955268 -0.03057748 23.88750139 -0.03290708 28.56547594 -0.0335443 C32.47171611 -0.03449335 36.37795201 -0.03817184 40.28419054 -0.0417164 C49.50459723 -0.04986534 58.72499417 -0.05230034 67.94540405 -0.05158997 C77.44914226 -0.05098992 86.95282356 -0.06152605 96.45654738 -0.07733363 C104.61889177 -0.09042515 112.7812176 -0.09577314 120.9435724 -0.09513456 C125.81700219 -0.09487992 130.69038149 -0.09771158 135.56380081 -0.10831261 C140.15203715 -0.11802 144.74017503 -0.11805467 149.32841492 -0.11079597 C151.00814839 -0.10975322 152.68788807 -0.11209459 154.36761093 -0.11815643 C167.66317863 -0.16301086 178.16912904 0.4059737 188.64315796 9.38371277 C195.62525893 17.46825074 198.16287699 23.33000707 198.17929077 34.02580261 C198.18425568 34.80532791 198.18922058 35.58485321 198.19433594 36.38800049 C198.20889486 38.95689285 198.2157485 41.5257235 198.22128296 44.09465027 C198.22703887 45.8867747 198.23279654 47.67889913 198.23855591 49.47102356 C198.24904756 53.22512599 198.25490246 56.97920712 198.25839233 60.73332214 C198.26387809 65.5338683 198.28791561 70.33413098 198.31636429 75.13458824 C198.33502373 78.83557449 198.34019799 82.53649282 198.34172821 86.23752213 C198.34474698 88.00688352 198.35274924 89.77624393 198.36591339 91.54555893 C198.38304596 94.02486796 198.38107647 96.503489 198.37460327 98.98283386 C198.38381805 99.70722153 198.39303284 100.43160919 198.40252686 101.177948 C198.33408768 109.58291049 194.36874595 116.80013576 189.01815796 123.13371277 C181.72941804 129.37951104 175.24926046 132.37620742 165.56838989 132.40113831 C164.47484975 132.40793498 164.47484975 132.40793498 163.35921788 132.41486895 C160.92743211 132.42748319 158.49587117 132.42589452 156.0640564 132.42424011 C154.31586928 132.43022729 152.5676848 132.43703327 150.81950378 132.44459534 C146.07758916 132.46224483 141.33574675 132.46695032 136.59380245 132.46822691 C133.62842753 132.46964984 130.66307088 132.47392217 127.6977005 132.47922134 C117.34438413 132.49771925 106.99111921 132.50589239 96.63778687 132.50431824 C87.00044735 132.50311741 77.363332 132.52420886 67.72604918 132.55580556 C59.44132874 132.58199581 51.15668138 132.59268436 42.87191987 132.59140742 C37.92857877 132.59089853 32.98543686 132.59654124 28.04213715 132.61776352 C23.38974432 132.63719182 18.73773975 132.63723907 14.08533287 132.62273026 C12.38343676 132.62064664 10.68151606 132.62531627 8.97966194 132.63745117 C-3.68413783 132.72185837 -14.48725125 131.34305834 -23.98184204 122.13371277 C-30.055497 114.73735073 -32.27449074 107.57639364 -32.30410767 98.00212097 C-32.31403748 97.22058151 -32.32396729 96.43904205 -32.334198 95.63381958 C-32.36322764 93.06734087 -32.37700984 90.50110944 -32.38809204 87.93449402 C-32.3937468 87.05122122 -32.39940155 86.16794842 -32.40522766 85.25790977 C-32.43512858 80.58214006 -32.45363883 75.90649239 -32.46231079 71.2306366 C-32.4732592 66.43026575 -32.52129084 61.63103549 -32.5782547 56.83102131 C-32.61572804 53.11351382 -32.62593025 49.3962749 -32.62898254 45.67859459 C-32.63498873 43.91052717 -32.65088548 42.14246179 -32.67735291 40.37458229 C-32.83872166 28.76623426 -32.20555511 18.99660446 -23.97146606 9.91687012 C-17.11840803 3.36322678 -9.4233799 0.01230462 0 0 Z " fill="#FE8C15" transform="translate(138.98184204101563,194.8662872314453)"/>
<path d="M0 0 C3.602431 1.36643934 6.35457711 2.961711 8.4375 6.3125 C8.623125 7.199375 8.80875 8.08625 9 9 C9.226875 10.051875 9.45375 11.10375 9.6875 12.1875 C7.80574933 22.62266278 -7.16548655 33.32941653 -14.5546875 40.72265625 C-15.9471844 42.11837262 -17.33960866 43.51416145 -18.73196411 44.91001892 C-21.62976755 47.81376875 -24.52958793 50.71548683 -27.43066406 53.6159668 C-31.15143377 57.33663406 -34.86522743 61.0641837 -38.57737541 64.79345036 C-41.4409272 67.66809116 -44.30898241 70.53820546 -47.17834854 73.40704155 C-48.55071704 74.78059085 -49.92146257 76.15576371 -51.29055405 77.53257942 C-53.19535616 79.44713695 -55.10633809 81.35530504 -57.01904297 83.26196289 C-57.58321426 83.83175369 -58.14738556 84.40154449 -58.72865295 84.98860168 C-62.32152868 88.55256335 -65.03849886 90.13262965 -70.0625 90.625 C-74.4310103 90.49523319 -76.29136552 89.29142204 -79.4375 86.31640625 C-80.30705322 85.49881836 -81.17660645 84.68123047 -82.07250977 83.83886719 C-83.04969562 82.89397824 -84.02545044 81.94760777 -85 81 C-85.53108368 80.48771851 -86.06216736 79.97543701 -86.60934448 79.44763184 C-90.14422559 76.03280039 -93.64421499 72.5846574 -97.12524414 69.11499023 C-98.9521354 67.29794346 -100.78944089 65.49184457 -102.62695312 63.68554688 C-103.80273757 62.51628251 -104.97789112 61.34638332 -106.15234375 60.17578125 C-106.69608139 59.64439041 -107.23981903 59.11299957 -107.80003357 58.56550598 C-111.93371358 54.40740827 -114.59384564 50.48205442 -115.5625 44.5625 C-114.80560069 39.76880434 -112.51963116 37.22784827 -109 34 C-105.10241146 32.05120573 -101.21518658 32.13304673 -97 33 C-93.7595053 34.99968989 -91.24645421 37.56521908 -88.62548828 40.31152344 C-86.64543599 42.3683035 -84.61909073 44.37456512 -82.58984375 46.3828125 C-78.36961188 50.56535981 -74.17770172 54.77500629 -70 59 C-68.85373678 58.02133662 -67.70800212 57.04205413 -66.5625 56.0625 C-65.92441406 55.51722656 -65.28632813 54.97195313 -64.62890625 54.41015625 C-62.01861015 52.3096829 -62.01861015 52.3096829 -61.68359375 48.62109375 C-61.5960053 47.22690051 -61.51517333 45.83228077 -61.4375 44.4375 C-61.29166667 41.95833333 -61.14583333 39.47916667 -61 37 C-60.10861328 37.11126221 -59.21722656 37.22252441 -58.29882812 37.3371582 C-51.77677672 37.59876719 -47.05732886 37.23851513 -41.875 32.98193359 C-37.50593423 28.94952618 -33.50083978 24.58025686 -29.5 20.1875 C-27.39951278 17.94384164 -25.28893355 15.7104543 -23.17077637 13.48347473 C-21.86377291 12.10284689 -20.56843726 10.71104289 -19.28723145 9.30644226 C-13.82883537 3.42911643 -8.52629178 -1.21804168 0 0 Z " fill="#FFFDFB" transform="translate(275,216)"/>
<path d="M0 0 C6.50517879 3.34646719 10.61797798 8.1481413 14.17578125 14.43359375 C16.42253375 21.79794916 16.04146935 28.12684737 12.55859375 35.01953125 C8.84316973 41.2272894 4.47783498 46.18749766 -2.69921875 48.12109375 C-10.38320673 49.08272625 -17.20719039 49.03101401 -23.80078125 44.66796875 C-30.11950582 39.51937836 -33.85113509 33.85979317 -35.05078125 25.7421875 C-35.45613057 18.92591868 -33.54628512 13.71770537 -29.69921875 8.12109375 C-21.88580715 -0.51000046 -11.27896082 -3.6725994 0 0 Z " fill="#FE5925" transform="translate(330.69921875,22.87890625)"/>
<path d="M0 0 C6.50517879 3.34646719 10.61797798 8.1481413 14.17578125 14.43359375 C16.42253375 21.79794916 16.04146935 28.12684737 12.55859375 35.01953125 C8.84316973 41.2272894 4.47783498 46.18749766 -2.69921875 48.12109375 C-10.38320673 49.08272625 -17.20719039 49.03101401 -23.80078125 44.66796875 C-30.11950582 39.51937836 -33.85113509 33.85979317 -35.05078125 25.7421875 C-35.45613057 18.92591868 -33.54628512 13.71770537 -29.69921875 8.12109375 C-21.88580715 -0.51000046 -11.27896082 -3.6725994 0 0 Z " fill="#FE5925" transform="translate(132.69921875,22.87890625)"/>
<path d="M0 0 C5.28 0 10.56 0 16 0 C16 10.89 16 21.78 16 33 C10.72 33 5.44 33 0 33 C0 22.11 0 11.22 0 0 Z " fill="#FFFFFF" transform="translate(214,195)"/>
<path d="M0 0 C5.28 0 10.56 0 16 0 C16 5.61 16 11.22 16 17 C10.72 17 5.44 17 0 17 C0 11.39 0 5.78 0 0 Z " fill="#FFFEFE" transform="translate(214,310)"/>
<path d="M0 0 C0.66 0.33 1.32 0.66 2 1 C-1.96 4.96 -5.92 8.92 -10 13 C-10 8.83248505 -7.76127698 6.85829482 -5 4 C-3.36927384 2.62294236 -1.7133562 1.27277889 0 0 Z " fill="#E5F2E8" transform="translate(44,55)"/>
</svg>
