<?xml version="1.0" encoding="UTF-8"?>
<svg version="1.1" xmlns="http://www.w3.org/2000/svg" width="32" height="32">
<path d="M0 0 C4.8846525 2.26787438 7.73212562 5.1153475 10 10 C10.75381535 15.5997712 10.77303575 20.33499991 8.375 25.5 C3.80134327 30.3143755 0.6912538 32.25156236 -6 32.5 C-12.6912538 32.25156236 -15.80134327 30.3143755 -20.375 25.5 C-22.77303575 20.33499991 -22.75381535 15.5997712 -22 10 C-17.52212837 0.3553534 -9.85292056 -1.32635469 0 0 Z " fill="#FF5757" transform="translate(22,0)"/>
<path d="M0 0 C4.05606165 0.46800711 7.46588679 0.87953208 11 3 C11 2.34 11 1.68 11 1 C13.97 1 16.94 1 20 1 C20 2.32 20 3.64 20 5 C18.35 5 16.7 5 15 5 C15 6.32 15 7.64 15 9 C15.99 9 16.98 9 18 9 C18 9.99 18 10.98 18 12 C16.68 12 15.36 12 14 12 C14 14.64 14 17.28 14 20 C13.34 19.67 12.68 19.34 12 19 C11.5859375 16.71484375 11.5859375 16.71484375 11.375 13.9375 C11.30023438 13.01839844 11.22546875 12.09929688 11.1484375 11.15234375 C11.09945313 10.44207031 11.05046875 9.73179688 11 9 C10.38125 9.495 9.7625 9.99 9.125 10.5 C7 12 7 12 5 12 C5 14.64 5 17.28 5 20 C4.34 20 3.68 20 3 20 C1.46733418 16.93466836 1.89723529 13.73245728 1.9375 10.375 C1.94201172 9.66859375 1.94652344 8.9621875 1.95117188 8.234375 C1.96296125 6.48954725 1.98089676 4.744763 2 3 C1.34 3 0.68 3 0 3 C0 2.01 0 1.02 0 0 Z " fill="#FFECEC" transform="translate(6,6)"/>
<path d="M0 0 C1.32 0.33 2.64 0.66 4 1 C3.67 3.31 3.34 5.62 3 8 C2.34 8 1.68 8 1 8 C1 10.64 1 13.28 1 16 C0.34 16 -0.32 16 -1 16 C-2.4783226 13.04335481 -2.06032783 10.25770263 -2 7 C-1.34 7 -0.68 7 0 7 C0 4.69 0 2.38 0 0 Z " fill="#FFB8B8" transform="translate(10,10)"/>
</svg>
